<svg version="1.1" id="Layer_1" xmlns="http://www.w3.org/2000/svg" xmlns:xlink="http://www.w3.org/1999/xlink" x="0px" y="0px"
	 width="100%" viewBox="0 0 500 500" enable-background="new 0 0 500 500" xml:space="preserve">
<path fill="#FFFFFF" opacity="1.000000" stroke="none" 
	d="
M342.000000,501.000000 
	C228.000031,501.000000 114.500053,501.000000 1.000061,501.000000 
	C1.000041,334.333405 1.000041,167.666794 1.000020,1.000150 
	C167.666565,1.000100 334.333130,1.000100 500.999756,1.000050 
	C500.999847,167.666519 500.999847,334.333038 500.999939,500.999786 
	C448.166656,501.000000 395.333344,501.000000 342.000000,501.000000 
M283.320099,348.558472 
	C241.592010,348.558472 199.863922,348.558472 158.226440,348.558472 
	C158.226440,374.407196 158.226440,399.626343 158.226440,425.000000 
	C167.553162,425.000000 176.538208,425.011627 185.523224,424.997925 
	C218.344711,424.947968 251.166214,424.889526 284.534912,424.926239 
	C284.620697,424.615051 284.706451,424.303894 284.926941,423.064972 
	C284.882050,398.714020 284.837128,374.363037 284.927216,349.471436 
	C284.613586,349.327789 284.299988,349.184113 283.320099,348.558472 
M283.067657,81.011742 
	C241.474640,81.011742 199.881607,81.011742 158.110260,81.011742 
	C158.110260,106.622963 158.110260,131.844864 158.110260,157.269226 
	C159.291046,157.358749 160.262451,157.496536 161.233902,157.496811 
	C201.204422,157.507736 241.174927,157.510056 281.145447,157.483597 
	C282.092163,157.482971 283.038666,157.142166 284.539978,156.934143 
	C284.624084,156.620850 284.708160,156.307541 284.926941,155.066345 
	C284.882050,130.715057 284.837128,106.363754 284.928375,81.474396 
	C284.616516,81.371635 284.304626,81.268875 283.067657,81.011742 
M136.925476,81.492683 
	C136.609283,81.382996 136.293091,81.273308 135.053467,81.011559 
	C102.459793,81.011559 69.866112,81.011559 36.799835,81.011559 
	C36.799835,195.906479 36.799835,310.381439 36.799835,424.836975 
	C70.388557,424.836975 103.180511,424.836975 136.531067,424.918579 
	C136.607376,424.602905 136.683670,424.287201 136.879105,423.044678 
	C136.882721,395.033905 136.887329,367.023132 136.889648,339.012360 
	C136.891327,318.828125 136.889984,298.643921 136.889984,278.459686 
	C136.889984,224.970978 136.897675,171.482269 136.884064,117.993561 
	C136.881012,106.006500 136.803314,94.019463 136.925476,81.492683 
M352.782928,345.507080 
	C352.782928,373.229950 352.782928,400.952789 352.782928,428.693420 
	C385.892456,428.693420 418.269440,428.693420 450.664398,428.693420 
	C450.664398,396.355499 450.664398,364.325287 450.664398,332.307373 
	C417.941132,332.307373 385.554443,332.307373 352.782715,332.307373 
	C352.782715,336.573639 352.782715,340.541718 352.782928,345.507080 
M175.501648,289.506561 
	C203.947342,289.506561 232.393036,289.506561 260.993195,289.506561 
	C260.993195,263.775482 260.993195,238.551941 260.993195,213.287354 
	C226.522873,213.287354 192.305588,213.287354 158.230179,213.287354 
	C158.230179,238.786606 158.230179,263.997162 158.230179,289.506500 
	C163.881607,289.506500 169.192169,289.506500 175.501648,289.506561 
z"/>
<path fill="#000000" opacity="1.000000" stroke="none" 
	d="
M135.972473,424.836975 
	C103.180511,424.836975 70.388557,424.836975 36.799835,424.836975 
	C36.799835,310.381439 36.799835,195.906479 36.799835,81.011559 
	C69.866112,81.011559 102.459793,81.011559 135.582489,81.284378 
	C136.243607,81.830299 136.459763,81.988701 136.759979,82.032410 
	C136.803314,94.019463 136.881012,106.006500 136.884064,117.993561 
	C136.897675,171.482269 136.889984,224.970978 136.889984,278.459686 
	C136.889984,298.643921 136.891327,318.828125 136.889648,339.012360 
	C136.887329,367.023132 136.882721,395.033905 136.624786,423.581726 
	C136.156799,424.313263 136.024139,424.552673 135.972473,424.836975 
z"/>
<path fill="#000000" opacity="1.000000" stroke="none" 
	d="
M283.985291,156.960022 
	C283.038666,157.142166 282.092163,157.482971 281.145447,157.483597 
	C241.174927,157.510056 201.204422,157.507736 161.233902,157.496811 
	C160.262451,157.496536 159.291046,157.358749 158.110260,157.269226 
	C158.110260,131.844864 158.110260,106.622963 158.110260,81.011742 
	C199.881607,81.011742 241.474640,81.011742 283.617065,81.270432 
	C284.314789,81.768234 284.523376,81.929352 284.792236,82.012459 
	C284.837128,106.363754 284.882050,130.715057 284.670563,155.639587 
	C284.187836,156.414017 284.044891,156.663086 283.985291,156.960022 
z"/>
<path fill="#000000" opacity="1.000000" stroke="none" 
	d="
M283.987701,424.834290 
	C251.166214,424.889526 218.344711,424.947968 185.523224,424.997925 
	C176.538208,425.011627 167.553162,425.000000 158.226440,425.000000 
	C158.226440,399.626343 158.226440,374.407196 158.226440,348.558472 
	C199.863922,348.558472 241.592010,348.558472 283.728851,349.005066 
	C284.288361,349.717255 284.506592,349.904053 284.792236,350.012085 
	C284.837128,374.363037 284.882050,398.714020 284.679749,423.618958 
	C284.222900,424.352112 284.074615,424.572571 283.987701,424.834290 
z"/>
<path fill="#1AB9D5" opacity="1.000000" stroke="none" 
	d="
M352.782837,345.008423 
	C352.782715,340.541718 352.782715,336.573639 352.782715,332.307373 
	C385.554443,332.307373 417.941132,332.307373 450.664398,332.307373 
	C450.664398,364.325287 450.664398,396.355499 450.664398,428.693420 
	C418.269440,428.693420 385.892456,428.693420 352.782928,428.693420 
	C352.782928,400.952789 352.782928,373.229950 352.782837,345.008423 
z"/>
<path fill="#000000" opacity="1.000000" stroke="none" 
	d="
M175.002197,289.506531 
	C169.192169,289.506500 163.881607,289.506500 158.230179,289.506500 
	C158.230179,263.997162 158.230179,238.786606 158.230179,213.287354 
	C192.305588,213.287354 226.522873,213.287354 260.993195,213.287354 
	C260.993195,238.551941 260.993195,263.775482 260.993195,289.506561 
	C232.393036,289.506561 203.947342,289.506561 175.002197,289.506531 
z"/>
<path fill="#2E2E2E" opacity="1.000000" stroke="none" 
	d="
M136.842728,81.762543 
	C136.459763,81.988701 136.243607,81.830299 136.044205,81.360413 
	C136.293091,81.273308 136.609283,81.382996 136.842728,81.762543 
z"/>
<path fill="#1C1C1C" opacity="1.000000" stroke="none" 
	d="
M284.860291,81.743423 
	C284.523376,81.929352 284.314789,81.768234 284.079590,81.347610 
	C284.304626,81.268875 284.616516,81.371635 284.860291,81.743423 
z"/>
<path fill="#1C1C1C" opacity="1.000000" stroke="none" 
	d="
M284.262634,156.947083 
	C284.044891,156.663086 284.187836,156.414017 284.603210,156.103531 
	C284.708160,156.307541 284.624084,156.620850 284.262634,156.947083 
z"/>
<path fill="#1C1C1C" opacity="1.000000" stroke="none" 
	d="
M284.859741,349.741760 
	C284.506592,349.904053 284.288361,349.717255 284.061981,349.246033 
	C284.299988,349.184113 284.613586,349.327789 284.859741,349.741760 
z"/>
<path fill="#2E2E2E" opacity="1.000000" stroke="none" 
	d="
M136.251770,424.877777 
	C136.024139,424.552673 136.156799,424.313263 136.565216,424.045135 
	C136.683670,424.287201 136.607376,424.602905 136.251770,424.877777 
z"/>
<path fill="#1C1C1C" opacity="1.000000" stroke="none" 
	d="
M284.261292,424.880249 
	C284.074615,424.572571 284.222900,424.352112 284.612396,424.082825 
	C284.706451,424.303894 284.620697,424.615051 284.261292,424.880249 
z"/>

</svg>