<?xml version="1.0" standalone="no"?>
<!DOCTYPE svg PUBLIC "-//W3C//DTD SVG 20010904//EN"
 "http://www.w3.org/TR/2001/REC-SVG-20010904/DTD/svg10.dtd">
<svg version="1.0" xmlns="http://www.w3.org/2000/svg"
 width="500.000000pt" height="500.000000pt" viewBox="0 0 500.000000 500.000000"
 preserveAspectRatio="xMidYMid meet">

<g transform="translate(0.000000,500.000000) scale(0.100000,-0.100000)"
fill="#000000" stroke="none">
<path d="M2315 4258 c-437 -56 -788 -228 -1081 -529 -279 -287 -438 -622 -491
-1034 -4 -33 -8 -123 -8 -200 1 -162 13 -264 53 -440 17 -74 71 -225 112 -313
38 -80 116 -220 130 -232 4 -3 25 -32 47 -65 66 -98 219 -254 363 -369 29 -23
105 -74 141 -94 20 -11 47 -26 60 -34 13 -7 26 -15 29 -18 9 -10 85 -43 225
-101 38 -15 110 -37 175 -52 205 -49 385 -64 569 -47 128 11 231 28 311 49 19
6 51 14 70 19 40 11 64 19 100 34 14 6 34 14 45 18 81 30 349 176 365 199 3 4
21 18 40 31 97 67 281 252 350 350 13 19 32 43 41 53 9 9 22 30 30 45 7 15 25
45 39 67 14 22 45 81 69 130 46 95 52 109 71 165 7 19 16 44 20 55 17 42 49
184 66 289 32 212 9 572 -48 756 -25 80 -57 167 -86 230 -11 25 -26 60 -34 78
-7 17 -16 32 -19 32 -4 0 -9 8 -12 18 -38 116 -312 435 -477 556 -36 26 -73
54 -83 62 -9 8 -20 14 -23 14 -3 0 -26 14 -51 31 -101 70 -345 170 -503 207
-207 48 -427 63 -605 40z m440 -117 c445 -75 787 -277 1075 -637 75 -93 171
-267 227 -409 167 -422 147 -911 -53 -1320 -43 -88 -74 -145 -84 -155 -3 -3
-11 -17 -19 -32 -8 -16 -18 -28 -23 -28 -4 0 -8 -5 -8 -11 0 -17 -118 -157
-207 -245 -82 -82 -195 -174 -213 -174 -6 0 -10 -4 -10 -8 0 -5 -12 -15 -27
-23 -16 -8 -30 -17 -33 -20 -9 -12 -194 -105 -265 -133 -338 -136 -733 -153
-1090 -45 -70 20 -78 23 -145 49 -90 34 -342 177 -370 209 -3 4 -23 19 -45 35
-49 36 -210 196 -253 251 -138 178 -210 307 -285 515 -19 52 -25 74 -48 180
-46 210 -46 523 1 720 6 25 15 61 19 80 29 125 167 422 231 497 9 10 26 34 40
53 70 99 243 272 340 340 19 13 37 27 40 31 12 16 153 96 245 140 92 43 197
81 300 107 22 6 59 15 81 21 23 6 59 11 80 12 22 1 50 5 64 9 32 11 357 4 435
-9z"/>
<path d="M2654 3267 c-2 -7 -3 -56 -2 -108 l3 -94 113 -3 113 -3 -3 108 -3
108 -108 3 c-83 2 -109 0 -113 -11z"/>
<path d="M1444 2959 c-29 -11 -72 -37 -97 -59 -24 -22 -47 -36 -51 -33 -3 3
-6 21 -6 40 l0 33 -55 0 -55 0 0 -615 0 -615 55 0 55 0 0 205 c0 170 2 205 14
205 8 0 16 -4 18 -8 6 -15 93 -69 128 -80 147 -45 208 -41 337 20 217 103 299
447 169 718 -41 87 -135 167 -235 199 -57 19 -218 13 -277 -10z m211 -80 c160
-29 255 -174 255 -386 0 -174 -74 -311 -193 -362 -52 -22 -181 -29 -215 -12
-9 5 -30 15 -47 22 -41 19 -97 77 -119 124 -33 70 -40 107 -40 230 0 156 20
225 87 297 44 48 80 69 140 84 67 16 63 16 132 3z"/>
<path d="M2395 2943 c-21 -7 -54 -25 -71 -38 -43 -33 -54 -31 -54 5 l0 31 -77
-3 -78 -3 -3 -452 -2 -453 80 0 80 0 0 265 c0 200 4 278 15 320 31 120 90 172
206 182 l69 6 0 78 0 79 -62 -1 c-35 -1 -81 -8 -103 -16z"/>
<path d="M2657 2953 c-4 -3 -7 -213 -7 -465 l0 -458 115 0 115 0 0 465 0 465
-108 0 c-60 0 -112 -3 -115 -7z"/>
<path d="M2990 2955 c0 -3 68 -105 150 -227 83 -122 150 -226 150 -233 0 -10
-34 -62 -238 -361 -34 -50 -62 -95 -62 -100 0 -5 78 -8 174 -6 l174 3 62 94
c35 52 68 95 75 95 7 0 39 -39 71 -87 32 -49 63 -92 68 -98 9 -10 346 -9 346
1 0 6 -144 222 -249 373 -28 41 -51 79 -51 85 0 6 68 110 150 232 83 122 150
225 150 228 0 3 -76 6 -168 6 -194 0 -174 9 -257 -117 -26 -40 -52 -73 -56
-73 -13 0 -49 42 -49 57 0 7 -3 13 -7 13 -5 0 -25 27 -47 60 l-38 60 -174 0
c-96 0 -174 -2 -174 -5z"/>
</g>
</svg>
