<?xml version="1.0" standalone="no"?>
<!DOCTYPE svg PUBLIC "-//W3C//DTD SVG 20010904//EN"
 "http://www.w3.org/TR/2001/REC-SVG-20010904/DTD/svg10.dtd">
<svg version="1.0" xmlns="http://www.w3.org/2000/svg"
 width="500.000000pt" height="500.000000pt" viewBox="0 0 500.000000 500.000000"
 preserveAspectRatio="xMidYMid meet">

<g transform="translate(0.000000,500.000000) scale(0.100000,-0.100000)"
fill="#000000" stroke="none">
<path d="M1195 3599 c-258 -39 -453 -192 -547 -429 -47 -119 -49 -163 -46
-940 l3 -725 24 -39 c36 -57 85 -76 201 -76 380 0 655 253 695 643 l7 67 237
-2 236 -3 6 -76 c24 -298 231 -539 520 -609 79 -19 118 -20 667 -20 667 0 676
1 832 77 79 38 109 60 175 127 84 84 125 150 167 266 l23 65 3 760 c2 418 0
775 -3 793 -8 43 -57 98 -103 113 -51 18 -212 15 -297 -6 -113 -27 -260 -110
-334 -189 l-24 -25 -57 52 c-74 67 -168 122 -250 148 -107 33 -217 42 -480 36
-274 -6 -330 -15 -443 -72 -68 -35 -177 -113 -177 -127 0 -18 -24 -5 -81 42
-73 61 -152 102 -251 131 -66 20 -100 22 -358 25 -157 1 -312 -2 -345 -7z
m675 -257 c75 -31 141 -81 190 -146 46 -61 89 -171 90 -228 l0 -38 -430 0
-430 0 0 -75 0 -75 163 0 c238 0 319 -24 425 -123 30 -29 65 -71 79 -95 30
-51 63 -152 63 -193 l0 -29 -364 0 -364 0 -4 -182 c-4 -202 -12 -237 -73 -332
-69 -109 -184 -178 -333 -201 l-43 -7 3 704 3 703 38 79 c42 89 124 177 198
213 98 48 134 53 444 50 274 -2 293 -4 345 -25z m1371 8 c153 -47 264 -163
304 -315 8 -33 15 -70 15 -82 l0 -23 -430 0 -430 0 0 -70 0 -70 148 0 c213 0
289 -23 394 -119 76 -70 129 -173 141 -278 l5 -43 -344 0 -344 0 0 -134 0
-134 258 -4 c255 -4 258 -4 327 -32 150 -61 252 -182 284 -334 21 -103 73 -92
-437 -92 -279 0 -471 4 -508 11 -169 31 -303 150 -354 318 -19 59 -20 94 -20
550 0 518 1 536 50 632 27 52 103 132 160 169 93 60 152 69 451 69 238 1 274
-1 330 -19z m917 -682 l-3 -703 -33 -69 c-18 -39 -49 -90 -69 -114 -65 -80
-191 -145 -294 -154 l-44 -3 -3 660 c-2 456 1 679 8 720 14 73 68 176 122 232
66 67 204 130 291 132 l28 1 -3 -702z"/>
</g>
</svg>
